<?xml version="1.0" encoding="utf-8"?>
<!-- Generator: Adobe Illustrator 15.1.0, SVG Export Plug-In . SVG Version: 6.00 Build 0)  -->
<!DOCTYPE svg PUBLIC "-//W3C//DTD SVG 1.1//EN" "http://www.w3.org/Graphics/SVG/1.1/DTD/svg11.dtd">
<svg version="1.1" id="Layer_1" xmlns="http://www.w3.org/2000/svg" xmlns:xlink="http://www.w3.org/1999/xlink" x="0px" y="0px"
	 width="710px" height="360px" viewBox="0 0 710 360" enable-background="new 0 0 710 360" xml:space="preserve">
<g>
	<defs>
		<rect id="SVGID_1_" x="-32" width="742" height="360"/>
	</defs>
	<clipPath id="SVGID_2_">
		<use xlink:href="#SVGID_1_"  overflow="visible"/>
	</clipPath>
	<radialGradient id="SVGID_3_" cx="304.2539" cy="181.834" r="297.7629" gradientUnits="userSpaceOnUse">
		<stop  offset="0" style="stop-color:#FFFFFF;stop-opacity:0.3"/>
		<stop  offset="0.8587" style="stop-color:#FFFFFF;stop-opacity:0.0424"/>
		<stop  offset="1" style="stop-color:#FFFFFF;stop-opacity:0"/>
	</radialGradient>
	<polygon clip-path="url(#SVGID_2_)" fill="url(#SVGID_3_)" points="561.511,428.937 333.07,218.002 477.463,493.374 
		321.345,224.475 378.154,530.173 308.232,227.205 272.412,536.067 294.898,225.949 169.63,510.531 282.525,220.819 78.941,455.835 
		272.215,212.27 8.404,376.838 264.883,201.061 -35.715,280.557 261.181,188.189 -49.495,175.55 261.437,174.797 -31.711,71.146 
		265.628,162.076 16.056,-23.376 273.384,151.156 89.562,-99.619 284.013,143.008 182.276,-150.81 296.572,138.353 
		285.959,-172.398 309.945,137.607 391.398,-162.467 322.944,140.837 489.227,-121.896 334.414,147.755 570.751,-54.295 
		343.334,157.744 628.727,34.336 348.914,169.921 658.003,136.115 350.657,183.201 655.979,242.002 348.407,196.405 622.832,342.59 
		342.366,208.359 	"/>
</g>
<g>
	<path opacity="0.08" d="M230.411,274.45c-0.121,0-0.243-0.022-0.357-0.066l-34.888-13.354c-0.455-0.174-0.718-0.65-0.624-1.128
		l3.529-17.805c0.093-0.469,0.503-0.806,0.981-0.806h14.836c0.299,0,0.583,0.134,0.772,0.364c0.19,0.231,0.267,0.535,0.209,0.828
		l-1.28,6.513l19.972,7.632l23.45-7.765l3.018-15.156h-59.172c-0.299,0-0.583-0.134-0.772-0.365c-0.19-0.23-0.267-0.535-0.208-0.828
		l2.927-14.837c0.092-0.469,0.503-0.807,0.981-0.807h59.608l1.491-7.584h-59.175c-0.3,0-0.583-0.135-0.773-0.366
		s-0.266-0.536-0.207-0.83l2.968-14.837c0.093-0.467,0.504-0.804,0.98-0.804h75.228c0.299,0,0.583,0.134,0.773,0.365
		s0.266,0.536,0.208,0.83l-6.857,34.486l-1.083,5.375l-5.333,26.785c-0.07,0.353-0.325,0.641-0.666,0.754l-40.22,13.354
		C230.624,274.434,230.518,274.45,230.411,274.45z"/>
	<path opacity="0.08" d="M230.411,273.95c-0.061,0-0.121-0.011-0.179-0.033l-34.888-13.354c-0.228-0.087-0.359-0.325-0.312-0.564
		l3.529-17.805c0.046-0.233,0.251-0.402,0.49-0.402h14.836c0.149,0,0.291,0.067,0.386,0.183c0.095,0.115,0.133,0.268,0.104,0.414
		l-1.361,6.926l20.532,7.846l23.895-7.912l3.193-16.04h-59.782c-0.149,0-0.292-0.067-0.386-0.183
		c-0.095-0.115-0.133-0.268-0.104-0.414l2.927-14.837c0.046-0.234,0.252-0.403,0.491-0.403h60.02l1.688-8.584h-59.783
		c-0.15,0-0.292-0.067-0.387-0.183c-0.095-0.116-0.133-0.269-0.104-0.415l2.968-14.837c0.047-0.234,0.252-0.402,0.49-0.402h75.228
		c0.15,0,0.292,0.067,0.387,0.183c0.095,0.116,0.133,0.269,0.104,0.415l-6.857,34.486l-1.082,5.374l-5.334,26.786
		c-0.035,0.177-0.162,0.32-0.333,0.377l-40.22,13.354C230.518,273.941,230.464,273.95,230.411,273.95z"/>
	<path opacity="0.08" d="M208.677,193.45l-2.968,14.837H266.1l-1.885,9.584h-60.431l-2.927,14.837h60.391l-3.369,16.923
		l-24.341,8.06l-21.092-8.06l1.442-7.339h-14.836l-3.529,17.805l34.888,13.354l40.22-13.354l5.334-26.787l1.082-5.373l6.857-34.486
		H208.677z"/>
</g>
<path fill="#0093BE" d="M208.677,192.45l-2.968,14.837H266.1l-1.885,9.584h-60.431l-2.927,14.837h60.391l-3.369,16.923l-24.341,8.06
	l-21.092-8.06l1.442-7.339h-14.836l-3.529,17.805l34.888,13.354l40.22-13.354l5.334-26.787l1.082-5.373l6.857-34.486H208.677z"/>
<g opacity="0.1">
	<polygon points="261,92.152 267.447,164.468 296.38,172.5 325.393,164.457 331.847,92.152 	"/>
	<polygon points="272.1,81.47 276.223,81.47 276.223,85.985 280.729,85.985 280.729,72.5 276.222,72.5 276.222,76.953 
		272.099,76.953 272.099,72.5 267.592,72.5 267.592,85.985 272.1,85.985 	"/>
	<polygon points="286.656,85.985 291.164,85.985 291.164,76.972 295.134,76.972 295.134,72.5 282.688,72.5 282.688,76.972 
		286.656,76.972 	"/>
	<polygon points="301.52,79.301 304.622,84.096 304.699,84.096 307.801,79.301 307.801,85.985 312.289,85.985 312.289,72.5 
		307.588,72.5 304.699,77.238 301.809,72.5 297.109,72.5 297.109,85.985 301.52,85.985 	"/>
	<polygon points="325.38,81.527 319.041,81.527 319.041,72.5 314.533,72.5 314.533,85.985 325.38,85.985 	"/>
</g>
<path opacity="0.08" d="M296.38,173.5c-0.09,0-0.18-0.012-0.268-0.037l-28.933-8.032c-0.401-0.111-0.691-0.46-0.729-0.875
	l-6.447-72.315c-0.025-0.28,0.069-0.557,0.258-0.764s0.457-0.325,0.738-0.325h70.847c0.281,0,0.548,0.118,0.738,0.325
	s0.283,0.484,0.258,0.764l-6.454,72.305c-0.037,0.415-0.328,0.764-0.729,0.875l-29.013,8.043
	C296.56,173.488,296.47,173.5,296.38,173.5z"/>
<path opacity="0.08" d="M276.223,86.985c-0.552,0-1-0.448-1-1V82.47H273.1v3.516c0,0.552-0.448,1-1,1h-4.508c-0.552,0-1-0.448-1-1
	V72.5c0-0.552,0.448-1,1-1h4.507c0.552,0,1,0.448,1,1v3.453h2.123V72.5c0-0.552,0.448-1,1-1h4.508c0.552,0,1,0.448,1,1v13.485
	c0,0.552-0.448,1-1,1H276.223z"/>
<path opacity="0.08" d="M286.656,86.985c-0.552,0-1-0.448-1-1v-8.014h-2.968c-0.552,0-1-0.448-1-1V72.5c0-0.552,0.448-1,1-1h12.445
	c0.552,0,1,0.448,1,1v4.472c0,0.552-0.448,1-1,1h-2.97v8.014c0,0.552-0.448,1-1,1H286.656z"/>
<path opacity="0.08" d="M307.801,86.985c-0.552,0-1-0.448-1-1v-3.297l-1.262,1.951c-0.185,0.285-0.5,0.457-0.84,0.457
	s-0.732-0.172-0.917-0.457l-1.263-1.952v3.298c0,0.552-0.448,1-1,1h-4.41c-0.552,0-1-0.448-1-1V72.5c0-0.552,0.448-1,1-1h4.699
	c0.349,0,0.672,0.182,0.854,0.479l2.037,3.339l2.035-3.338c0.182-0.298,0.505-0.479,0.854-0.479h4.701c0.552,0,1,0.448,1,1v13.485
	c0,0.552-0.448,1-1,1H307.801z"/>
<path opacity="0.08" d="M314.533,86.985c-0.552,0-1-0.448-1-1V72.5c0-0.552,0.448-1,1-1h4.508c0.552,0,1,0.448,1,1v8.027h5.339
	c0.552,0,1,0.448,1,1v4.458c0,0.552-0.448,1-1,1H314.533z"/>
<path opacity="0.08" d="M296.38,173c-0.045,0-0.09-0.006-0.134-0.018l-28.933-8.032c-0.201-0.056-0.346-0.23-0.364-0.438
	l-6.447-72.315c-0.012-0.14,0.034-0.278,0.129-0.382s0.229-0.163,0.369-0.163h70.847c0.14,0,0.274,0.059,0.369,0.163
	s0.142,0.242,0.129,0.382l-6.454,72.305c-0.019,0.208-0.164,0.382-0.364,0.438l-29.013,8.043C296.47,172.994,296.425,173,296.38,173
	z"/>
<path opacity="0.08" d="M276.223,86.485c-0.276,0-0.5-0.224-0.5-0.5V81.97H272.6v4.016c0,0.276-0.224,0.5-0.5,0.5h-4.508
	c-0.276,0-0.5-0.224-0.5-0.5V72.5c0-0.276,0.224-0.5,0.5-0.5h4.507c0.276,0,0.5,0.224,0.5,0.5v3.953h3.123V72.5
	c0-0.276,0.224-0.5,0.5-0.5h4.508c0.276,0,0.5,0.224,0.5,0.5v13.485c0,0.276-0.224,0.5-0.5,0.5H276.223z"/>
<path opacity="0.08" d="M286.656,86.485c-0.276,0-0.5-0.224-0.5-0.5v-8.514h-3.468c-0.276,0-0.5-0.224-0.5-0.5V72.5
	c0-0.276,0.224-0.5,0.5-0.5h12.445c0.276,0,0.5,0.224,0.5,0.5v4.472c0,0.276-0.224,0.5-0.5,0.5h-3.47v8.514
	c0,0.276-0.224,0.5-0.5,0.5H286.656z"/>
<path opacity="0.08" d="M307.801,86.485c-0.276,0-0.5-0.224-0.5-0.5v-4.991l-2.182,3.373c-0.092,0.143-0.25,0.229-0.42,0.229
	s-0.405-0.086-0.497-0.229l-2.183-3.373v4.991c0,0.276-0.224,0.5-0.5,0.5h-4.41c-0.276,0-0.5-0.224-0.5-0.5V72.5
	c0-0.276,0.224-0.5,0.5-0.5h4.699c0.174,0,0.336,0.091,0.427,0.24l2.464,4.038l2.462-4.038c0.091-0.149,0.252-0.24,0.427-0.24h4.701
	c0.276,0,0.5,0.224,0.5,0.5v13.485c0,0.276-0.224,0.5-0.5,0.5H307.801z"/>
<path opacity="0.08" d="M314.533,86.485c-0.276,0-0.5-0.224-0.5-0.5V72.5c0-0.276,0.224-0.5,0.5-0.5h4.508
	c0.276,0,0.5,0.224,0.5,0.5v8.527h5.839c0.276,0,0.5,0.224,0.5,0.5v4.458c0,0.276-0.224,0.5-0.5,0.5H314.533z"/>
<g opacity="0.08">
	<polygon points="261,92.152 267.447,164.468 296.38,172.5 325.393,164.457 331.847,92.152 	"/>
	<polygon points="272.1,81.47 276.223,81.47 276.223,85.985 280.729,85.985 280.729,72.5 276.222,72.5 276.222,76.953 
		272.099,76.953 272.099,72.5 267.592,72.5 267.592,85.985 272.1,85.985 	"/>
	<polygon points="286.656,85.985 291.164,85.985 291.164,76.972 295.134,76.972 295.134,72.5 282.688,72.5 282.688,76.972 
		286.656,76.972 	"/>
	<polygon points="301.52,79.301 304.622,84.096 304.699,84.096 307.801,79.301 307.801,85.985 312.289,85.985 312.289,72.5 
		307.588,72.5 304.699,77.238 301.809,72.5 297.109,72.5 297.109,85.985 301.52,85.985 	"/>
	<polygon points="325.38,81.527 319.041,81.527 319.041,72.5 314.533,72.5 314.533,85.985 325.38,85.985 	"/>
</g>
<g>
	<polygon fill="#E44D26" points="267.447,163.468 261,91.152 331.847,91.152 325.393,163.457 296.38,171.5 	"/>
	<polygon fill="#F16529" points="296.424,165.353 319.867,158.853 325.383,97.065 296.424,97.065 	"/>
	<polygon fill="#FFFFFF" points="296.424,105.935 296.393,105.935 274.184,105.935 274.396,108.314 276.576,132.755 
		296.393,132.755 296.424,132.755 307.314,132.755 306.285,144.258 296.393,146.928 296.393,146.929 296.385,146.931 
		286.507,144.264 285.875,137.19 281.075,137.19 276.972,137.19 278.215,151.116 296.383,156.159 296.424,156.148 296.424,156.146 
		314.574,151.116 314.709,149.617 316.793,126.268 317.009,123.886 314.619,123.886 296.424,123.886 296.393,123.886 
		284.688,123.886 283.877,114.804 296.393,114.804 296.424,114.804 317.787,114.804 317.816,114.804 317.994,112.811 
		318.398,108.314 318.61,105.935 	"/>
	<polygon fill="#EBEBEB" points="296.424,123.886 284.688,123.886 283.877,114.804 296.424,114.804 296.424,105.935 
		296.393,105.935 274.184,105.935 274.396,108.314 276.576,132.755 296.424,132.755 	"/>
	<polygon fill="#EBEBEB" points="296.424,146.921 296.385,146.931 286.507,144.264 285.875,137.19 281.075,137.19 276.972,137.19 
		278.215,151.116 296.383,156.159 296.424,156.148 	"/>
	<path d="M267.592,71.5h4.507v4.453h4.123V71.5h4.508v13.485h-4.507V80.47H272.1v4.516h-4.508V71.5L267.592,71.5z"/>
	<path d="M286.656,75.972h-3.968V71.5h12.445v4.472h-3.97v9.014h-4.508V75.972L286.656,75.972z"/>
	<path d="M297.109,71.5h4.699l2.891,4.738l2.889-4.738h4.701v13.485h-4.488v-6.685l-3.102,4.795h-0.077l-3.103-4.795v6.685h-4.41
		V71.5z"/>
	<path d="M314.533,71.5h4.508v9.027h6.339v4.458h-10.847V71.5z"/>
	<polygon fill="#FFFFFF" points="296.393,123.886 296.393,132.755 307.314,132.755 306.285,144.258 296.393,146.928 
		296.393,156.155 314.574,151.116 314.709,149.617 316.793,126.268 317.009,123.886 314.619,123.886 	"/>
	<polygon fill="#FFFFFF" points="296.393,105.935 296.393,111.443 296.393,114.782 296.393,114.804 317.787,114.804 
		317.787,114.804 317.816,114.804 317.994,112.811 318.398,108.314 318.61,105.935 	"/>
</g>
<path opacity="0.05" d="M311,272c-0.829,0-1.5-0.672-1.5-1.5v-80c0-0.828,0.671-1.5,1.5-1.5h80c0.828,0,1.5,0.672,1.5,1.5v80
	c0,0.828-0.672,1.5-1.5,1.5H311z"/>
<path opacity="0.05" d="M311,271.5c-0.552,0-1-0.447-1-1v-80c0-0.553,0.448-1,1-1h80c0.553,0,1,0.447,1,1v80c0,0.553-0.447,1-1,1
	H311z"/>
<path opacity="0.05" d="M311,271c-0.276,0-0.5-0.224-0.5-0.5v-80c0-0.276,0.224-0.5,0.5-0.5h80c0.276,0,0.5,0.224,0.5,0.5v80
	c0,0.276-0.224,0.5-0.5,0.5H311z"/>
<rect x="311" y="190.5" opacity="0.05" width="80" height="80"/>
<g id="logo">
	<rect id="background" x="311" y="190" fill="#F7DF1E" width="80" height="80"/>
	<path id="j" d="M332.035,256.854l6.122-3.705c1.181,2.095,2.255,3.866,4.833,3.866c2.47,0,4.027-0.966,4.027-4.725v-25.562h7.519
		v25.669c0,7.786-4.565,11.33-11.225,11.33C337.298,263.727,333.807,260.611,332.035,256.854"/>
	<path id="s" d="M358.619,256.049l6.121-3.545c1.611,2.632,3.706,4.564,7.411,4.564c3.115,0,5.102-1.558,5.102-3.705
		c0-2.578-2.04-3.49-5.478-4.994l-1.879-0.806c-5.425-2.309-9.022-5.209-9.022-11.331c0-5.638,4.296-9.935,11.009-9.935
		c4.779,0,8.217,1.665,10.686,6.015l-5.853,3.76c-1.289-2.31-2.685-3.223-4.833-3.223c-2.201,0-3.598,1.396-3.598,3.223
		c0,2.255,1.396,3.168,4.618,4.564l1.879,0.806c6.391,2.738,9.989,5.531,9.989,11.813c0,6.767-5.316,10.472-12.459,10.472
		C365.331,263.728,360.82,260.398,358.619,256.049"/>
</g>
</svg>
