<?xml version="1.0" encoding="utf-8"?>
<!-- Generator: Adobe Illustrator 15.1.0, SVG Export Plug-In . SVG Version: 6.00 Build 0)  -->
<!DOCTYPE svg PUBLIC "-//W3C//DTD SVG 1.1//EN" "http://www.w3.org/Graphics/SVG/1.1/DTD/svg11.dtd">
<svg version="1.1" id="Layer_1" xmlns="http://www.w3.org/2000/svg" xmlns:xlink="http://www.w3.org/1999/xlink" x="0px" y="0px"
	 width="710px" height="360px" viewBox="0 0 710 360" enable-background="new 0 0 710 360" xml:space="preserve">
<path fill="#333333" d="M291,125H153c-2.761,0-5,2.238-5,5v100c0,2.762,2.239,5,5,5h138c2.761,0,5-2.238,5-5V130
	C296,127.238,293.761,125,291,125z M204,128l2.143,5h-21.824l-2.143-5H204z M291,230H153v-95l3-7h24l3,7h108V230z"/>
<g>
	<rect x="153" y="135" fill="#FFFFFF" width="138" height="95"/>
	<g>
		<g>
			<linearGradient id="SVGID_1_" gradientUnits="userSpaceOnUse" x1="222" y1="166" x2="222" y2="198.0005">
				<stop  offset="0" style="stop-color:#29ABE2"/>
				<stop  offset="0.4757" style="stop-color:#28A9E1"/>
				<stop  offset="0.6639" style="stop-color:#23A2DC"/>
				<stop  offset="0.8012" style="stop-color:#1A96D4"/>
				<stop  offset="0.913" style="stop-color:#0E85C9"/>
				<stop  offset="1" style="stop-color:#0071BC"/>
			</linearGradient>
			<path fill="url(#SVGID_1_)" d="M238,192c0,3.3-2.7,6-6,6h-20c-3.3,0-6-2.7-6-6v-20c0-3.3,2.7-6,6-6h20c3.3,0,6,2.7,6,6V192z"/>
		</g>
		<g>
			<path fill="#FFFFFF" d="M234,190c0,2.2-1.8,4-4,4h-16c-2.2,0-4-1.8-4-4v-16c0-2.2,1.8-4,4-4h16c2.2,0,4,1.8,4,4V190z"/>
		</g>
		<g>
			<path fill="#4D4D4D" d="M231,173v18h-8v-4h4v-10h-4v-4H231z"/>
		</g>
		<g>
			<path fill="#4D4D4D" d="M221,173v4h-4v10h4v4h-8v-18H221z"/>
		</g>
	</g>
</g>
<polygon fill="#FFFFFF" points="153,135 156,128 180,128 183,135 "/>
</svg>
