<?xml version="1.0" encoding="utf-8"?>
<!-- Generator: Adobe Illustrator 15.1.0, SVG Export Plug-In . SVG Version: 6.00 Build 0)  -->
<!DOCTYPE svg PUBLIC "-//W3C//DTD SVG 1.1//EN" "http://www.w3.org/Graphics/SVG/1.1/DTD/svg11.dtd">
<svg version="1.1" id="Layer_1" xmlns="http://www.w3.org/2000/svg" xmlns:xlink="http://www.w3.org/1999/xlink" x="0px" y="0px"
	 width="48px" height="240px" viewBox="0 0 48 240" enable-background="new 0 0 48 240" xml:space="preserve">
<g>
	<polygon fill="#4D4D4D" points="23.976,127.797 5,109.913 5,133 43,133 43,109.865 	"/>
	<polygon fill="#4D4D4D" points="41.673,107 6.273,107 23.973,123.797 	"/>
</g>
<g>
	<g>
		<g>
			<path fill-rule="evenodd" clip-rule="evenodd" fill="#4D4D4D" d="M8.55,64.13c0.762-0.761,1.105-1.78,1.038-2.776l1.278-1.277
				c0,0,7.793-8.948,16.899-3.755l-0.432,0.54l-3.396-0.527l2.798,1.276l-0.523,0.656c-3.779-0.568-10.591,2.151-8.345,4.967
				l6.638,6.637l0.014-0.015c0.458,0.437,1.002,0.728,1.578,0.874L43.99,87.074l-5.602,5.601L22.08,74.821
				c-0.148-0.624-0.461-1.218-0.949-1.704c-0.061-0.061-0.124-0.114-0.188-0.17l-7.117-7.117l0,0
				c-0.915,0.002-1.893,0.288-2.59,0.985c-0.729,0.729-1.075,1.693-1.044,2.648l-2.106,2.105l-4.356-4.355l2.045-2.046
				C6.77,65.235,7.788,64.892,8.55,64.13"/>
		</g>
	</g>
</g>
<g>
	<g>
		<g>
			<path fill="#4D4D4D" d="M35.076,156.617h-7.311v-9.256h-7.791v9.256h-7.312l11.207,13.578L35.076,156.617z M26.564,186.826
				c-0.137-0.364-0.214-0.759-0.258-1.108h-4.875c-0.043,0.35-0.121,0.744-0.257,1.109c-0.285,0.739-0.742,1.313-1.643,1.317v0.437
				h8.675v-0.437C27.307,188.141,26.85,187.566,26.564,186.826 M33.471,170.914H14.27c-0.32,0-0.58,0.259-0.58,0.579v12.617
				c0,0.32,0.259,0.58,0.58,0.58h19.201c0.32,0,0.579-0.26,0.579-0.58v-12.617C34.05,171.173,33.791,170.914,33.471,170.914
				 M31.232,181.873H16.507v-8.143h14.726V181.873z"/>
		</g>
	</g>
</g>
<path fill="#4D4D4D" d="M24,4C12.954,4,4,12.954,4,24s8.954,20,20,20s20-8.954,20-20S35.046,4,24,4z M19.945,38.229
	c-1.569,0-2.657-0.74-2.657-2.396c0-2.09,1.48-5.662,1.788-6.403l3.048-7.667c0.305-0.784-0.087-1.175-0.436-1.175
	c-1.611,0-3.704,3.79-4.485,3.79c-0.306,0-0.567-0.306-0.567-0.567c0-0.784,1.917-2.613,2.484-3.179
	c1.741-1.656,4.007-2.919,6.533-2.919c1.873,0,3.877,1.133,2.31,5.359l-3.138,8.494c-0.26,0.653-0.739,1.743-0.739,2.44
	c0,0.304,0.173,0.61,0.522,0.61c1.306,0,3.704-3.704,4.313-3.704c0.218,0,0.521,0.261,0.521,0.653
	C29.44,32.826,24.345,38.229,19.945,38.229z M27.438,16.143c-1.787,0-2.963-1.177-2.963-2.963c0-1.917,1.654-3.484,3.572-3.484
	c1.743,0,3.007,1.175,3.007,2.962C31.054,14.662,29.398,16.143,27.438,16.143z"/>
<g>
	<g>
		<g>
			<path fill="#4D4D4D" d="M22.613,223.688c2.561,0.002,5.128-1.001,7.062-2.937l0.307-0.307l-4.386-4.387l-0.307,0.306
				c-0.755,0.754-1.709,1.117-2.675,1.12c-1.011-0.004-1.977-0.368-2.73-1.12l-7.191-7.19c-0.752-0.755-1.116-1.716-1.12-2.709
				c0.003-0.983,0.367-1.942,1.119-2.697l0.307-0.306c0.754-0.753,1.714-1.116,2.703-1.12c0.989,0.004,1.948,0.367,2.703,1.12
				l2.957,2.957c1.211,1.212,3.175,1.212,4.386,0c1.211-1.211,1.211-3.175,0-4.387l-2.957-2.957
				c-1.949-1.952-4.534-2.94-7.089-2.937c-2.556-0.004-5.14,0.984-7.089,2.937l-0.306,0.306c-1.949,1.947-2.94,4.527-2.936,7.084
				c-0.004,2.555,0.981,5.143,2.937,7.096l7.191,7.19c1.961,1.963,4.555,2.938,7.101,2.938H22.613z"/>
			<path fill="#4D4D4D" d="M32.602,235.912c2.561,0.002,5.128-1.001,7.062-2.937l0.307-0.306c1.957-1.955,2.94-4.545,2.937-7.1
				c0.003-2.557-0.989-5.136-2.937-7.08l-7.191-7.191c-1.949-1.951-4.534-2.94-7.09-2.937c-2.003-0.003-4.024,0.604-5.744,1.807
				c-0.285,0.145-0.551,0.336-0.789,0.574l-0.556,0.556l-0.306,0.306l0,0l0,0l4.386,4.388h0l0.306-0.307
				c0.755-0.752,1.714-1.116,2.703-1.119c0.989,0.003,1.948,0.367,2.703,1.119l7.191,7.191c0.752,0.755,1.116,1.712,1.119,2.693
				c-0.004,0.996-0.367,1.958-1.119,2.713l-0.307,0.305c-0.755,0.754-1.709,1.117-2.675,1.12c-1.012-0.004-1.978-0.368-2.73-1.12
				l-3.099-3.098c-1.211-1.211-3.176-1.211-4.386,0c-1.211,1.211-1.211,3.175,0,4.387l3.099,3.099
				c1.96,1.963,4.555,2.937,7.101,2.937H32.602z"/>
		</g>
	</g>
</g>
</svg>
