<?xml version="1.0" encoding="utf-8"?>
<!-- Generator: Adobe Illustrator 15.1.0, SVG Export Plug-In . SVG Version: 6.00 Build 0)  -->
<!DOCTYPE svg PUBLIC "-//W3C//DTD SVG 1.1//EN" "http://www.w3.org/Graphics/SVG/1.1/DTD/svg11.dtd">
<svg version="1.1" id="Layer_1" xmlns="http://www.w3.org/2000/svg" xmlns:xlink="http://www.w3.org/1999/xlink" x="0px" y="0px"
	 width="48px" height="192px" viewBox="0 0 48 192" enable-background="new 0 0 48 192" xml:space="preserve">
<g>
	<polygon fill="#333333" points="23.976,79.797 3,61.913 3,85 45,85 45,61.865 	"/>
	<polygon fill="#333333" points="43.673,59 4.273,59 23.973,75.797 	"/>
</g>
<g>
	<g>
		<g>
			<path fill-rule="evenodd" clip-rule="evenodd" fill="#333333" d="M39.169,112.13c-0.762-0.761-1.105-1.78-1.038-2.776
				l-1.278-1.277c0,0-7.793-8.948-16.899-3.755l0.431,0.54l3.396-0.527l-2.798,1.276l0.524,0.656
				c3.779-0.568,10.591,2.151,8.345,4.967l-6.638,6.637l-0.014-0.015c-0.458,0.437-1.002,0.728-1.577,0.874L3.729,135.074
				l5.602,5.601l16.309-17.854c0.148-0.624,0.461-1.218,0.949-1.704c0.061-0.061,0.124-0.114,0.188-0.17l7.117-7.117l0,0
				c0.915,0.002,1.893,0.288,2.59,0.985c0.729,0.729,1.075,1.693,1.044,2.648l2.106,2.105l4.356-4.355l-2.045-2.046
				C40.949,113.235,39.931,112.892,39.169,112.13"/>
		</g>
	</g>
</g>
<g>
	<g>
		<g>
			<path fill="#333333" d="M35.076,156.617h-7.311v-9.256h-7.791v9.256h-7.312l11.207,13.578L35.076,156.617z M26.564,186.826
				c-0.137-0.364-0.214-0.759-0.258-1.108h-4.875c-0.043,0.35-0.121,0.744-0.257,1.109c-0.285,0.739-0.742,1.313-1.643,1.317v0.437
				h8.675v-0.437C27.307,188.141,26.85,187.566,26.564,186.826 M33.471,170.914H14.27c-0.32,0-0.58,0.259-0.58,0.579v12.617
				c0,0.32,0.259,0.58,0.58,0.58h19.201c0.32,0,0.579-0.26,0.579-0.58v-12.617C34.05,171.173,33.791,170.914,33.471,170.914
				 M31.232,181.873H16.507v-8.143h14.726V181.873z"/>
		</g>
	</g>
</g>
<path fill="#333333" d="M24,4C12.954,4,4,12.954,4,24s8.954,20,20,20s20-8.954,20-20S35.046,4,24,4z M19.945,38.229
	c-1.569,0-2.657-0.74-2.657-2.396c0-2.09,1.48-5.662,1.788-6.403l3.048-7.667c0.305-0.784-0.087-1.175-0.436-1.175
	c-1.611,0-3.704,3.79-4.485,3.79c-0.306,0-0.567-0.306-0.567-0.567c0-0.784,1.917-2.613,2.484-3.179
	c1.741-1.656,4.007-2.919,6.533-2.919c1.873,0,3.877,1.133,2.31,5.359l-3.138,8.494c-0.26,0.653-0.739,1.743-0.739,2.44
	c0,0.304,0.173,0.61,0.522,0.61c1.306,0,3.704-3.704,4.313-3.704c0.218,0,0.521,0.261,0.521,0.653
	C29.44,32.826,24.345,38.229,19.945,38.229z M27.438,16.143c-1.787,0-2.963-1.177-2.963-2.963c0-1.917,1.654-3.484,3.572-3.484
	c1.743,0,3.007,1.175,3.007,2.962C31.054,14.662,29.398,16.143,27.438,16.143z"/>
</svg>
