<?xml version="1.0" encoding="utf-8"?>
<!-- Generator: Adobe Illustrator 15.1.0, SVG Export Plug-In . SVG Version: 6.00 Build 0)  -->
<!DOCTYPE svg PUBLIC "-//W3C//DTD SVG 1.1//EN" "http://www.w3.org/Graphics/SVG/1.1/DTD/svg11.dtd">
<svg version="1.1" id="Layer_1" xmlns="http://www.w3.org/2000/svg" xmlns:xlink="http://www.w3.org/1999/xlink" x="0px" y="0px"
	 width="710px" height="360px" viewBox="0 0 710 360" enable-background="new 0 0 710 360" xml:space="preserve">
<g>
	<g>
		<path opacity="0.08" d="M372,312.5c-0.553,0-1-0.447-1-1v-64c0-0.553,0.447-1,1-1h7v-11c0-0.553,0.447-1,1-1h32
			c0.553,0,1,0.447,1,1v11h14v-11c0-0.553,0.447-1,1-1h32c0.553,0,1,0.447,1,1v11h14v-11c0-0.553,0.447-1,1-1h32
			c0.553,0,1,0.447,1,1v11h14v-11c0-0.553,0.447-1,1-1h32c0.553,0,1,0.447,1,1v11h14v-11c0-0.553,0.447-1,1-1h32
			c0.553,0,1,0.447,1,1v11h14v-11c0-0.553,0.447-1,1-1h32c0.553,0,1,0.447,1,1v11h7c0.553,0,1,0.447,1,1v64c0,0.553-0.447,1-1,1H372
			z"/>
		<path opacity="0.08" d="M372,312c-0.276,0-0.5-0.224-0.5-0.5v-64c0-0.276,0.224-0.5,0.5-0.5h7.5v-11.5c0-0.276,0.224-0.5,0.5-0.5
			h32c0.276,0,0.5,0.224,0.5,0.5V247h15v-11.5c0-0.276,0.224-0.5,0.5-0.5h32c0.276,0,0.5,0.224,0.5,0.5V247h15v-11.5
			c0-0.276,0.224-0.5,0.5-0.5h32c0.276,0,0.5,0.224,0.5,0.5V247h15v-11.5c0-0.276,0.224-0.5,0.5-0.5h32c0.276,0,0.5,0.224,0.5,0.5
			V247h15v-11.5c0-0.276,0.224-0.5,0.5-0.5h32c0.276,0,0.5,0.224,0.5,0.5V247h15v-11.5c0-0.276,0.224-0.5,0.5-0.5h32
			c0.276,0,0.5,0.224,0.5,0.5V247h7.5c0.276,0,0.5,0.224,0.5,0.5v64c0,0.276-0.224,0.5-0.5,0.5H372z"/>
		<polygon opacity="0.08" points="380,247.5 380,235.5 412,235.5 412,247.5 428,247.5 428,235.5 460,235.5 460,247.5 468,247.5 
			476,247.5 476,235.5 508,235.5 508,247.5 524,247.5 524,235.5 556,235.5 556,247.5 564,247.5 572,247.5 572,235.5 604,235.5 
			604,247.5 620,247.5 620,235.5 652,235.5 652,247.5 660,247.5 660,311.5 564,311.5 468,311.5 372,311.5 372,247.5 		"/>
	</g>
	
		<linearGradient id="SVGID_1_" gradientUnits="userSpaceOnUse" x1="4.9995" y1="234.999" x2="4.9995" y2="310.999" gradientTransform="matrix(-1 0 0 1 521 0)">
		<stop  offset="0" style="stop-color:#29ABE2"/>
		<stop  offset="0.4757" style="stop-color:#28A9E1"/>
		<stop  offset="0.6639" style="stop-color:#23A2DC"/>
		<stop  offset="0.8012" style="stop-color:#1A96D4"/>
		<stop  offset="0.913" style="stop-color:#0E85C9"/>
		<stop  offset="1" style="stop-color:#0071BC"/>
	</linearGradient>
	<polygon fill="url(#SVGID_1_)" points="380,247 380,235 412,235 412,247 428,247 428,235 460,235 460,247 468,247 476,247 476,235 
		508,235 508,247 524,247 524,235 556,235 556,247 564,247 572,247 572,235 604,235 604,247 620,247 620,235 652,235 652,247 
		660,247 660,311 564,311 468,311 372,311 372,247 	"/>
	
		<linearGradient id="SVGID_2_" gradientUnits="userSpaceOnUse" x1="47.5708" y1="332.5371" x2="-35.1627" y2="226.5447" gradientTransform="matrix(-1 0 0 1 521 0)">
		<stop  offset="0.3313" style="stop-color:#FFFFFF;stop-opacity:0.05"/>
		<stop  offset="0.9257" style="stop-color:#FFFFFF;stop-opacity:0.0944"/>
		<stop  offset="1" style="stop-color:#FFFFFF;stop-opacity:0.1"/>
	</linearGradient>
	<polygon fill="url(#SVGID_2_)" points="655.328,306.912 374,261 374,249 658,249 658,307 	"/>
	<g>
		<path opacity="0.08" d="M372,248.5c-0.553,0-1-0.447-1-1v-64c0-0.553,0.447-1,1-1h7v-11c0-0.553,0.447-1,1-1h32
			c0.553,0,1,0.447,1,1v11h14v-11c0-0.553,0.447-1,1-1h32c0.553,0,1,0.447,1,1v11h14v-11c0-0.553,0.447-1,1-1h32
			c0.553,0,1,0.447,1,1v11h14v-11c0-0.553,0.447-1,1-1h32c0.553,0,1,0.447,1,1v11h14v-11c0-0.553,0.447-1,1-1h32
			c0.553,0,1,0.447,1,1v11h14v-11c0-0.553,0.447-1,1-1h32c0.553,0,1,0.447,1,1v11h7c0.553,0,1,0.447,1,1v64c0,0.553-0.447,1-1,1H372
			z"/>
		<path opacity="0.08" d="M372,248c-0.276,0-0.5-0.224-0.5-0.5v-64c0-0.276,0.224-0.5,0.5-0.5h7.5v-11.5c0-0.276,0.224-0.5,0.5-0.5
			h32c0.276,0,0.5,0.224,0.5,0.5V183h15v-11.5c0-0.276,0.224-0.5,0.5-0.5h32c0.276,0,0.5,0.224,0.5,0.5V183h15v-11.5
			c0-0.276,0.224-0.5,0.5-0.5h32c0.276,0,0.5,0.224,0.5,0.5V183h15v-11.5c0-0.276,0.224-0.5,0.5-0.5h32c0.276,0,0.5,0.224,0.5,0.5
			V183h15v-11.5c0-0.276,0.224-0.5,0.5-0.5h32c0.276,0,0.5,0.224,0.5,0.5V183h15v-11.5c0-0.276,0.224-0.5,0.5-0.5h32
			c0.276,0,0.5,0.224,0.5,0.5V183h7.5c0.276,0,0.5,0.224,0.5,0.5v64c0,0.276-0.224,0.5-0.5,0.5H372z"/>
		<polygon opacity="0.08" points="380,183.5 380,171.5 412,171.5 412,183.5 428,183.5 428,171.5 460,171.5 460,183.5 468,183.5 
			476,183.5 476,171.5 508,171.5 508,183.5 524,183.5 524,171.5 556,171.5 556,183.5 564,183.5 572,183.5 572,171.5 604,171.5 
			604,183.5 620,183.5 620,171.5 652,171.5 652,183.5 660,183.5 660,247.5 564,247.5 468,247.5 372,247.5 372,183.5 		"/>
	</g>
	<polygon fill="#FBB03B" points="380,183 380,171 412,171 412,183 428,183 428,171 460,171 460,183 468,183 476,183 476,171 
		508,171 508,183 524,183 524,171 556,171 556,183 564,183 572,183 572,171 604,171 604,183 620,183 620,171 652,171 652,183 
		660,183 660,247 564,247 468,247 372,247 372,183 	"/>
	<g>
		
			<linearGradient id="SVGID_3_" gradientUnits="userSpaceOnUse" x1="-83" y1="177" x2="-51" y2="177" gradientTransform="matrix(-1 0 0 1 521 0)">
			<stop  offset="0" style="stop-color:#000000;stop-opacity:0.2"/>
			<stop  offset="0.5" style="stop-color:#000000;stop-opacity:0"/>
			<stop  offset="1" style="stop-color:#000000;stop-opacity:0.3"/>
		</linearGradient>
		<rect x="572" y="171" fill="url(#SVGID_3_)" width="32" height="12"/>
		
			<linearGradient id="SVGID_4_" gradientUnits="userSpaceOnUse" x1="143.6768" y1="177" x2="175.6768" y2="177" gradientTransform="matrix(1 0 0 1 476.3232 0)">
			<stop  offset="0" style="stop-color:#000000;stop-opacity:0.2"/>
			<stop  offset="0.5" style="stop-color:#000000;stop-opacity:0"/>
			<stop  offset="1" style="stop-color:#000000;stop-opacity:0.3"/>
		</linearGradient>
		<rect x="620" y="171" fill="url(#SVGID_4_)" width="32" height="12"/>
		<rect x="620" y="179" opacity="0.2" width="32" height="4"/>
		<rect x="572" y="179" opacity="0.2" width="32" height="4"/>
		
			<linearGradient id="SVGID_5_" gradientUnits="userSpaceOnUse" x1="47.5708" y1="268.5371" x2="-35.1632" y2="162.5442" gradientTransform="matrix(-1 0 0 1 521 0)">
			<stop  offset="0.3313" style="stop-color:#FFFFFF;stop-opacity:0.1"/>
			<stop  offset="0.9257" style="stop-color:#FFFFFF;stop-opacity:0.1889"/>
			<stop  offset="1" style="stop-color:#FFFFFF;stop-opacity:0.2"/>
		</linearGradient>
		<polygon fill="url(#SVGID_5_)" points="655.328,242.912 374,197 374,185 658,185 658,243 		"/>
	</g>
	<g>
		<g>
			<path opacity="0.08" d="M564,184.5c-0.553,0-1-0.447-1-1v-64c0-0.552,0.447-1,1-1h7v-11c0-0.552,0.447-1,1-1h32
				c0.553,0,1,0.448,1,1v11h14v-11c0-0.552,0.447-1,1-1h32c0.553,0,1,0.448,1,1v11h7c0.553,0,1,0.448,1,1v64c0,0.553-0.447,1-1,1
				H564z"/>
			<path opacity="0.08" d="M564,184c-0.276,0-0.5-0.224-0.5-0.5v-64c0-0.276,0.224-0.5,0.5-0.5h7.5v-11.5c0-0.276,0.224-0.5,0.5-0.5
				h32c0.276,0,0.5,0.224,0.5,0.5V119h15v-11.5c0-0.276,0.224-0.5,0.5-0.5h32c0.276,0,0.5,0.224,0.5,0.5V119h7.5
				c0.276,0,0.5,0.224,0.5,0.5v64c0,0.276-0.224,0.5-0.5,0.5H564z"/>
			<polygon opacity="0.08" points="572,119.5 572,107.5 604,107.5 604,119.5 620,119.5 620,107.5 652,107.5 652,119.5 660,119.5 
				660,183.5 564,183.5 564,119.5 			"/>
		</g>
		<polygon fill="#C1272D" points="572,119 572,107 604,107 604,119 620,119 620,107 652,107 652,119 660,119 660,183 564,183 
			564,119 		"/>
		
			<linearGradient id="SVGID_6_" gradientUnits="userSpaceOnUse" x1="-83" y1="113" x2="-51" y2="113" gradientTransform="matrix(-1 0 0 1 521 0)">
			<stop  offset="0" style="stop-color:#000000;stop-opacity:0.2"/>
			<stop  offset="0.5" style="stop-color:#000000;stop-opacity:0"/>
			<stop  offset="1" style="stop-color:#000000;stop-opacity:0.3"/>
		</linearGradient>
		<rect x="572" y="107" fill="url(#SVGID_6_)" width="32" height="12"/>
		
			<linearGradient id="SVGID_7_" gradientUnits="userSpaceOnUse" x1="143.6768" y1="113" x2="175.6768" y2="113" gradientTransform="matrix(1 0 0 1 476.3232 0)">
			<stop  offset="0" style="stop-color:#000000;stop-opacity:0.2"/>
			<stop  offset="0.5" style="stop-color:#000000;stop-opacity:0"/>
			<stop  offset="1" style="stop-color:#000000;stop-opacity:0.3"/>
		</linearGradient>
		<rect x="620" y="107" fill="url(#SVGID_7_)" width="32" height="12"/>
		<rect x="620" y="115" opacity="0.2" width="32" height="4"/>
		<rect x="572" y="115" opacity="0.2" width="32" height="4"/>
	</g>
	<g>
		
			<linearGradient id="SVGID_8_" gradientUnits="userSpaceOnUse" x1="109" y1="177" x2="141" y2="177" gradientTransform="matrix(-1 0 0 1 521 0)">
			<stop  offset="0" style="stop-color:#000000;stop-opacity:0.2"/>
			<stop  offset="0.5" style="stop-color:#000000;stop-opacity:0"/>
			<stop  offset="1" style="stop-color:#000000;stop-opacity:0.3"/>
		</linearGradient>
		<rect x="380" y="171" fill="url(#SVGID_8_)" width="32" height="12"/>
		
			<linearGradient id="SVGID_9_" gradientUnits="userSpaceOnUse" x1="-48.3232" y1="177" x2="-16.3232" y2="177" gradientTransform="matrix(1 0 0 1 476.3232 0)">
			<stop  offset="0" style="stop-color:#000000;stop-opacity:0.2"/>
			<stop  offset="0.5" style="stop-color:#000000;stop-opacity:0"/>
			<stop  offset="1" style="stop-color:#000000;stop-opacity:0.3"/>
		</linearGradient>
		<rect x="428" y="171" fill="url(#SVGID_9_)" width="32" height="12"/>
		<rect x="428" y="179" opacity="0.2" width="32" height="4"/>
		<rect x="380" y="179" opacity="0.2" width="32" height="4"/>
	</g>
	<g>
		<g>
			<path opacity="0.08" d="M372,184.5c-0.553,0-1-0.447-1-1v-64c0-0.552,0.447-1,1-1h7v-11c0-0.552,0.447-1,1-1h32
				c0.553,0,1,0.448,1,1v11h14v-11c0-0.552,0.447-1,1-1h32c0.553,0,1,0.448,1,1v11h7c0.553,0,1,0.448,1,1v64c0,0.553-0.447,1-1,1
				H372z"/>
			<path opacity="0.08" d="M372,184c-0.276,0-0.5-0.224-0.5-0.5v-64c0-0.276,0.224-0.5,0.5-0.5h7.5v-11.5c0-0.276,0.224-0.5,0.5-0.5
				h32c0.276,0,0.5,0.224,0.5,0.5V119h15v-11.5c0-0.276,0.224-0.5,0.5-0.5h32c0.276,0,0.5,0.224,0.5,0.5V119h7.5
				c0.276,0,0.5,0.224,0.5,0.5v64c0,0.276-0.224,0.5-0.5,0.5H372z"/>
			<polygon opacity="0.08" points="380,119.5 380,107.5 412,107.5 412,119.5 428,119.5 428,107.5 460,107.5 460,119.5 468,119.5 
				468,183.5 372,183.5 372,119.5 			"/>
		</g>
		<polygon fill="#C1272D" points="380,119 380,107 412,107 412,119 428,119 428,107 460,107 460,119 468,119 468,183 372,183 
			372,119 		"/>
		
			<linearGradient id="SVGID_10_" gradientUnits="userSpaceOnUse" x1="109" y1="113" x2="141" y2="113" gradientTransform="matrix(-1 0 0 1 521 0)">
			<stop  offset="0" style="stop-color:#000000;stop-opacity:0.2"/>
			<stop  offset="0.5" style="stop-color:#000000;stop-opacity:0"/>
			<stop  offset="1" style="stop-color:#000000;stop-opacity:0.3"/>
		</linearGradient>
		<rect x="380" y="107" fill="url(#SVGID_10_)" width="32" height="12"/>
		
			<linearGradient id="SVGID_11_" gradientUnits="userSpaceOnUse" x1="-48.3232" y1="113" x2="-16.3232" y2="113" gradientTransform="matrix(1 0 0 1 476.3232 0)">
			<stop  offset="0" style="stop-color:#000000;stop-opacity:0.2"/>
			<stop  offset="0.5" style="stop-color:#000000;stop-opacity:0"/>
			<stop  offset="1" style="stop-color:#000000;stop-opacity:0.3"/>
		</linearGradient>
		<rect x="428" y="107" fill="url(#SVGID_11_)" width="32" height="12"/>
		<rect x="428" y="115" opacity="0.2" width="32" height="4"/>
		<rect x="380" y="115" opacity="0.2" width="32" height="4"/>
		
			<linearGradient id="SVGID_12_" gradientUnits="userSpaceOnUse" x1="115.5713" y1="153.6665" x2="87.1586" y2="117.2662" gradientTransform="matrix(-1 0 0 1 521 0)">
			<stop  offset="0.3313" style="stop-color:#FFFFFF;stop-opacity:0.05"/>
			<stop  offset="0.9257" style="stop-color:#FFFFFF;stop-opacity:0.0944"/>
			<stop  offset="1" style="stop-color:#FFFFFF;stop-opacity:0.1"/>
		</linearGradient>
		<polygon fill="url(#SVGID_12_)" points="462.328,147.912 375,132 375,122 465,122 465,148 		"/>
		
			<linearGradient id="SVGID_13_" gradientUnits="userSpaceOnUse" x1="-69.5317" y1="177.5034" x2="-108.5662" y2="127.4952" gradientTransform="matrix(-1 0 0 1 521 0)">
			<stop  offset="0.3313" style="stop-color:#FFFFFF;stop-opacity:0.05"/>
			<stop  offset="0.9257" style="stop-color:#FFFFFF;stop-opacity:0.0944"/>
			<stop  offset="1" style="stop-color:#FFFFFF;stop-opacity:0.1"/>
		</linearGradient>
		<polygon fill="url(#SVGID_13_)" points="654.328,177.912 567,162 567,122 657,122 657,178 		"/>
	</g>
	<g>
		
			<linearGradient id="SVGID_14_" gradientUnits="userSpaceOnUse" x1="13" y1="177" x2="45" y2="177" gradientTransform="matrix(-1 0 0 1 521 0)">
			<stop  offset="0" style="stop-color:#000000;stop-opacity:0.1"/>
			<stop  offset="0.5" style="stop-color:#000000;stop-opacity:0"/>
			<stop  offset="1" style="stop-color:#000000;stop-opacity:0.2"/>
		</linearGradient>
		<rect x="476" y="171" fill="url(#SVGID_14_)" width="32" height="12"/>
		
			<linearGradient id="SVGID_15_" gradientUnits="userSpaceOnUse" x1="47.6768" y1="177" x2="79.6768" y2="177" gradientTransform="matrix(1 0 0 1 476.3232 0)">
			<stop  offset="0" style="stop-color:#000000;stop-opacity:0.1"/>
			<stop  offset="0.5" style="stop-color:#000000;stop-opacity:0"/>
			<stop  offset="1" style="stop-color:#000000;stop-opacity:0.2"/>
		</linearGradient>
		<rect x="524" y="171" fill="url(#SVGID_15_)" width="32" height="12"/>
		<rect x="524" y="182" opacity="0.1" width="32" height="1"/>
		<rect x="476" y="182" opacity="0.1" width="32" height="1"/>
	</g>
	<g>
		
			<linearGradient id="SVGID_16_" gradientUnits="userSpaceOnUse" x1="-83" y1="49" x2="-51" y2="49" gradientTransform="matrix(-1 0 0 1 521 0)">
			<stop  offset="0" style="stop-color:#000000;stop-opacity:0.2"/>
			<stop  offset="0.5" style="stop-color:#000000;stop-opacity:0"/>
			<stop  offset="1" style="stop-color:#000000;stop-opacity:0.3"/>
		</linearGradient>
		<rect x="572" y="43" fill="url(#SVGID_16_)" width="32" height="12"/>
		<g>
			<path opacity="0.08" d="M372,120.5c-0.553,0-1-0.447-1-1v-64c0-0.553,0.447-1,1-1h7v-11c0-0.553,0.447-1,1-1h32
				c0.553,0,1,0.447,1,1v11h14v-11c0-0.553,0.447-1,1-1h32c0.553,0,1,0.447,1,1v11h14v-11c0-0.553,0.447-1,1-1h32
				c0.553,0,1,0.447,1,1v11h14v-11c0-0.553,0.447-1,1-1h32c0.553,0,1,0.447,1,1v11h14v-11c0-0.553,0.447-1,1-1h32
				c0.553,0,1,0.447,1,1v11h14v-11c0-0.553,0.447-1,1-1h32c0.553,0,1,0.447,1,1v11h7c0.553,0,1,0.447,1,1v64c0,0.553-0.447,1-1,1
				H372z"/>
			<path opacity="0.08" d="M372,120c-0.276,0-0.5-0.224-0.5-0.5v-64c0-0.276,0.224-0.5,0.5-0.5h7.5V43.5c0-0.276,0.224-0.5,0.5-0.5
				h32c0.276,0,0.5,0.224,0.5,0.5V55h15V43.5c0-0.276,0.224-0.5,0.5-0.5h32c0.276,0,0.5,0.224,0.5,0.5V55h15V43.5
				c0-0.276,0.224-0.5,0.5-0.5h32c0.276,0,0.5,0.224,0.5,0.5V55h15V43.5c0-0.276,0.224-0.5,0.5-0.5h32c0.276,0,0.5,0.224,0.5,0.5V55
				h15V43.5c0-0.276,0.224-0.5,0.5-0.5h32c0.276,0,0.5,0.224,0.5,0.5V55h15V43.5c0-0.276,0.224-0.5,0.5-0.5h32
				c0.276,0,0.5,0.224,0.5,0.5V55h7.5c0.276,0,0.5,0.224,0.5,0.5v64c0,0.276-0.224,0.5-0.5,0.5H372z"/>
			<polygon opacity="0.08" points="380,55.5 380,43.5 412,43.5 412,55.5 428,55.5 428,43.5 460,43.5 460,55.5 468,55.5 476,55.5 
				476,43.5 508,43.5 508,55.5 524,55.5 524,43.5 556,43.5 556,55.5 564,55.5 572,55.5 572,43.5 604,43.5 604,55.5 620,55.5 
				620,43.5 652,43.5 652,55.5 660,55.5 660,119.5 564,119.5 468,119.5 372,119.5 372,55.5 			"/>
		</g>
		<polygon fill="#F15A24" points="380,55 380,43 412,43 412,55 428,55 428,43 460,43 460,55 468,55 476,55 476,43 508,43 508,55 
			524,55 524,43 556,43 556,55 564,55 572,55 572,43 604,43 604,55 620,55 620,43 652,43 652,55 660,55 660,119 564,119 468,119 
			372,119 372,55 		"/>
		
			<linearGradient id="SVGID_17_" gradientUnits="userSpaceOnUse" x1="47.5713" y1="140.5381" x2="-35.1627" y2="34.5451" gradientTransform="matrix(-1 0 0 1 521 0)">
			<stop  offset="0.3313" style="stop-color:#FFFFFF;stop-opacity:0.05"/>
			<stop  offset="0.9257" style="stop-color:#FFFFFF;stop-opacity:0.0944"/>
			<stop  offset="1" style="stop-color:#FFFFFF;stop-opacity:0.1"/>
		</linearGradient>
		<polygon fill="url(#SVGID_17_)" points="655.328,114.912 374,69 374,57 658,57 658,115 		"/>
		
			<linearGradient id="SVGID_18_" gradientUnits="userSpaceOnUse" x1="143.6768" y1="49" x2="175.6768" y2="49" gradientTransform="matrix(1 0 0 1 476.3232 0)">
			<stop  offset="0" style="stop-color:#000000;stop-opacity:0.1"/>
			<stop  offset="0.5" style="stop-color:#000000;stop-opacity:0"/>
			<stop  offset="1" style="stop-color:#000000;stop-opacity:0.2"/>
		</linearGradient>
		<rect x="620" y="43" fill="url(#SVGID_18_)" width="32" height="12"/>
		
			<linearGradient id="SVGID_19_" gradientUnits="userSpaceOnUse" x1="95.6768" y1="49" x2="127.6768" y2="49" gradientTransform="matrix(1 0 0 1 476.3232 0)">
			<stop  offset="0" style="stop-color:#000000;stop-opacity:0.1"/>
			<stop  offset="0.5" style="stop-color:#000000;stop-opacity:0"/>
			<stop  offset="1" style="stop-color:#000000;stop-opacity:0.2"/>
		</linearGradient>
		<rect x="572" y="43" fill="url(#SVGID_19_)" width="32" height="12"/>
		<rect x="620" y="54" opacity="0.1" width="32" height="1"/>
		<rect x="572" y="54" opacity="0.1" width="32" height="1"/>
	</g>
	<g>
		
			<linearGradient id="SVGID_20_" gradientUnits="userSpaceOnUse" x1="109" y1="49" x2="141" y2="49" gradientTransform="matrix(-1 0 0 1 521 0)">
			<stop  offset="0" style="stop-color:#000000;stop-opacity:0.1"/>
			<stop  offset="0.5" style="stop-color:#000000;stop-opacity:0"/>
			<stop  offset="1" style="stop-color:#000000;stop-opacity:0.2"/>
		</linearGradient>
		<rect x="380" y="43" fill="url(#SVGID_20_)" width="32" height="12"/>
		
			<linearGradient id="SVGID_21_" gradientUnits="userSpaceOnUse" x1="-48.3232" y1="49" x2="-16.3232" y2="49" gradientTransform="matrix(1 0 0 1 476.3232 0)">
			<stop  offset="0" style="stop-color:#000000;stop-opacity:0.1"/>
			<stop  offset="0.5" style="stop-color:#000000;stop-opacity:0"/>
			<stop  offset="1" style="stop-color:#000000;stop-opacity:0.2"/>
		</linearGradient>
		<rect x="428" y="43" fill="url(#SVGID_21_)" width="32" height="12"/>
		<rect x="428" y="54" opacity="0.1" width="32" height="1"/>
		<rect x="380" y="54" opacity="0.1" width="32" height="1"/>
	</g>
	<g>
		
			<linearGradient id="SVGID_22_" gradientUnits="userSpaceOnUse" x1="13" y1="49" x2="45" y2="49" gradientTransform="matrix(-1 0 0 1 521 0)">
			<stop  offset="0" style="stop-color:#000000;stop-opacity:0.1"/>
			<stop  offset="0.5" style="stop-color:#000000;stop-opacity:0"/>
			<stop  offset="1" style="stop-color:#000000;stop-opacity:0.2"/>
		</linearGradient>
		<rect x="476" y="43" fill="url(#SVGID_22_)" width="32" height="12"/>
		
			<linearGradient id="SVGID_23_" gradientUnits="userSpaceOnUse" x1="47.6768" y1="49" x2="79.6768" y2="49" gradientTransform="matrix(1 0 0 1 476.3232 0)">
			<stop  offset="0" style="stop-color:#000000;stop-opacity:0.1"/>
			<stop  offset="0.5" style="stop-color:#000000;stop-opacity:0"/>
			<stop  offset="1" style="stop-color:#000000;stop-opacity:0.2"/>
		</linearGradient>
		<rect x="524" y="43" fill="url(#SVGID_23_)" width="32" height="12"/>
		<rect x="524" y="54" opacity="0.1" width="32" height="1"/>
		<rect x="476" y="54" opacity="0.1" width="32" height="1"/>
	</g>
</g>
</svg>
